<svg xmlns="http://www.w3.org/2000/svg" viewBox="80 634 1340 236" preserveAspectRatio="xMidYMid meet" version="1.0"><defs><g/></defs><g fill="#36e152" fill-opacity="1"><g transform="translate(135.887203, 807.37491)"><g><path d="M 39.421875 0 L 20.140625 0 L 20.140625 -148.09375 L 80.90625 -148.09375 C 88.09375 -148.09375 94.679688 -146.894531 100.671875 -144.5 C 106.660156 -142.101562 111.867188 -138.742188 116.296875 -134.421875 C 120.722656 -130.109375 124.132812 -124.992188 126.53125 -119.078125 C 128.925781 -113.160156 130.125 -106.71875 130.125 -99.75 C 130.125 -92.488281 128.925781 -85.863281 126.53125 -79.875 C 124.132812 -73.882812 120.757812 -68.710938 116.40625 -64.359375 C 112.050781 -60.003906 106.894531 -56.628906 100.9375 -54.234375 C 94.988281 -51.835938 88.457031 -50.640625 81.34375 -50.640625 L 39.421875 -50.640625 Z M 39.421875 -130.78125 L 39.421875 -68.0625 L 80.46875 -68.0625 C 86.28125 -68.0625 91.472656 -69.4375 96.046875 -72.1875 C 100.617188 -74.945312 104.226562 -78.722656 106.875 -83.515625 C 109.53125 -88.304688 110.859375 -93.679688 110.859375 -99.640625 C 110.859375 -103.921875 110.09375 -107.929688 108.5625 -111.671875 C 107.039062 -115.410156 104.878906 -118.710938 102.078125 -121.578125 C 99.285156 -124.441406 96.035156 -126.691406 92.328125 -128.328125 C 88.628906 -129.960938 84.601562 -130.78125 80.25 -130.78125 Z M 39.421875 -130.78125 "/></g></g><g transform="translate(270.483243, 807.37491)"><g><path d="M 36.8125 0 L 17.96875 0 L 17.96875 -111.078125 L 36.046875 -111.078125 L 36.046875 -86.25 C 38.804688 -93.9375 43.109375 -99.992188 48.953125 -104.421875 C 54.796875 -108.859375 61.742188 -111.078125 69.796875 -111.078125 L 80.578125 -111.078125 L 80.578125 -94.625 L 70.78125 -94.625 C 64.320312 -94.625 58.515625 -92.953125 53.359375 -89.609375 C 48.203125 -86.273438 44.15625 -81.445312 41.21875 -75.125 C 38.28125 -68.8125 36.8125 -61.191406 36.8125 -52.265625 Z M 36.8125 0 "/></g></g><g transform="translate(354.986905, 807.37491)"><g><path d="M 120 -58.265625 C 120 -57.316406 119.976562 -56.316406 119.9375 -55.265625 C 119.90625 -54.210938 119.816406 -52.671875 119.671875 -50.640625 L 27.546875 -50.640625 C 28.347656 -43.234375 30.523438 -36.804688 34.078125 -31.359375 C 37.640625 -25.910156 42.101562 -21.71875 47.46875 -18.78125 C 52.84375 -15.84375 58.582031 -14.375 64.6875 -14.375 C 72.164062 -14.375 78.550781 -15.988281 83.84375 -19.21875 C 89.144531 -22.445312 93.03125 -27.1875 95.5 -33.4375 L 116.515625 -33.4375 C 114.921875 -28.351562 112.539062 -23.59375 109.375 -19.15625 C 106.21875 -14.726562 102.40625 -10.863281 97.9375 -7.5625 C 93.476562 -4.257812 88.472656 -1.664062 82.921875 0.21875 C 77.367188 2.101562 71.4375 3.046875 65.125 3.046875 C 57.0625 3.046875 49.597656 1.539062 42.734375 -1.46875 C 35.878906 -4.476562 29.890625 -8.671875 24.765625 -14.046875 C 19.648438 -19.421875 15.675781 -25.644531 12.84375 -32.71875 C 10.019531 -39.800781 8.609375 -47.40625 8.609375 -55.53125 C 8.609375 -63.664062 10.019531 -71.269531 12.84375 -78.34375 C 15.675781 -85.425781 19.648438 -91.648438 24.765625 -97.015625 C 29.890625 -102.390625 35.878906 -106.601562 42.734375 -109.65625 C 49.597656 -112.707031 57.0625 -114.234375 65.125 -114.234375 C 73.101562 -114.234375 80.453125 -112.742188 87.171875 -109.765625 C 93.890625 -106.785156 99.695312 -102.679688 104.59375 -97.453125 C 109.488281 -92.234375 113.28125 -86.265625 115.96875 -79.546875 C 118.65625 -72.828125 120 -65.734375 120 -58.265625 Z M 28.421875 -67.1875 L 100.84375 -67.1875 C 100.550781 -71.101562 99.40625 -74.835938 97.40625 -78.390625 C 95.40625 -81.953125 92.769531 -85.09375 89.5 -87.8125 C 86.238281 -90.539062 82.484375 -92.6875 78.234375 -94.25 C 73.992188 -95.8125 69.515625 -96.59375 64.796875 -96.59375 C 59.273438 -96.59375 54.007812 -95.46875 49 -93.21875 C 43.988281 -90.96875 39.664062 -87.660156 36.03125 -83.296875 C 32.40625 -78.941406 29.867188 -73.570312 28.421875 -67.1875 Z M 28.421875 -67.1875 "/></g></g><g transform="translate(481.851295, 807.37491)"><g><path d="M 36.703125 37.890625 L 17.96875 37.890625 L 17.96875 -111.078125 L 35.9375 -111.078125 L 35.9375 -87.328125 C 38.550781 -92.484375 41.960938 -97.078125 46.171875 -101.109375 C 50.378906 -105.140625 55.257812 -108.316406 60.8125 -110.640625 C 66.363281 -112.960938 72.335938 -114.125 78.734375 -114.125 C 86.566406 -114.125 93.804688 -112.613281 100.453125 -109.59375 C 107.097656 -106.582031 112.90625 -102.390625 117.875 -97.015625 C 122.851562 -91.648438 126.703125 -85.425781 129.421875 -78.34375 C 132.140625 -71.269531 133.5 -63.664062 133.5 -55.53125 C 133.5 -47.40625 132.117188 -39.785156 129.359375 -32.671875 C 126.609375 -25.554688 122.765625 -19.3125 117.828125 -13.9375 C 112.890625 -8.5625 107.113281 -4.367188 100.5 -1.359375 C 93.894531 1.648438 86.710938 3.15625 78.953125 3.15625 C 72.847656 3.15625 67.035156 2.085938 61.515625 -0.046875 C 56.003906 -2.191406 51.085938 -5.242188 46.765625 -9.203125 C 42.453125 -13.160156 38.988281 -17.820312 36.375 -23.1875 L 36.703125 -10.671875 Z M 75.6875 -14.265625 C 81.050781 -14.265625 86.09375 -15.257812 90.8125 -17.25 C 95.53125 -19.25 99.6875 -22.082031 103.28125 -25.75 C 106.875 -29.414062 109.707031 -33.769531 111.78125 -38.8125 C 113.851562 -43.863281 114.890625 -49.4375 114.890625 -55.53125 C 114.890625 -61.5625 113.867188 -67.082031 111.828125 -72.09375 C 109.796875 -77.101562 106.984375 -81.4375 103.390625 -85.09375 C 99.796875 -88.757812 95.640625 -91.609375 90.921875 -93.640625 C 86.203125 -95.679688 81.125 -96.703125 75.6875 -96.703125 C 70.238281 -96.703125 65.15625 -95.644531 60.4375 -93.53125 C 55.71875 -91.425781 51.578125 -88.488281 48.015625 -84.71875 C 44.460938 -80.945312 41.671875 -76.570312 39.640625 -71.59375 C 37.609375 -66.625 36.59375 -61.269531 36.59375 -55.53125 C 36.59375 -49.65625 37.609375 -44.191406 39.640625 -39.140625 C 41.671875 -34.097656 44.5 -29.722656 48.125 -26.015625 C 51.757812 -22.316406 55.9375 -19.429688 60.65625 -17.359375 C 65.375 -15.296875 70.382812 -14.265625 75.6875 -14.265625 Z M 75.6875 -14.265625 "/></g></g><g transform="translate(624.070086, 807.37491)"><g><path d="M 62.28125 3.15625 C 54.664062 3.15625 47.609375 1.648438 41.109375 -1.359375 C 34.609375 -4.367188 28.925781 -8.5625 24.0625 -13.9375 C 19.195312 -19.3125 15.40625 -25.554688 12.6875 -32.671875 C 9.96875 -39.785156 8.609375 -47.40625 8.609375 -55.53125 C 8.609375 -63.664062 9.96875 -71.269531 12.6875 -78.34375 C 15.40625 -85.425781 19.195312 -91.648438 24.0625 -97.015625 C 28.925781 -102.390625 34.609375 -106.582031 41.109375 -109.59375 C 47.609375 -112.613281 54.628906 -114.125 62.171875 -114.125 C 68.859375 -114.125 75.066406 -113.035156 80.796875 -110.859375 C 86.535156 -108.679688 91.597656 -105.578125 95.984375 -101.546875 C 100.378906 -97.515625 103.8125 -92.738281 106.28125 -87.21875 L 106.28125 -111.078125 L 124.25 -111.078125 L 124.25 0 L 106.28125 0 L 106.28125 -23.625 C 103.8125 -18.1875 100.378906 -13.453125 95.984375 -9.421875 C 91.597656 -5.390625 86.535156 -2.285156 80.796875 -0.109375 C 75.066406 2.066406 68.894531 3.15625 62.28125 3.15625 Z M 66.421875 -14.375 C 71.867188 -14.375 76.96875 -15.40625 81.71875 -17.46875 C 86.476562 -19.539062 90.632812 -22.445312 94.1875 -26.1875 C 97.75 -29.925781 100.546875 -34.300781 102.578125 -39.3125 C 104.609375 -44.320312 105.625 -49.726562 105.625 -55.53125 C 105.625 -61.269531 104.609375 -66.625 102.578125 -71.59375 C 100.546875 -76.570312 97.734375 -80.925781 94.140625 -84.65625 C 90.546875 -88.394531 86.390625 -91.316406 81.671875 -93.421875 C 76.953125 -95.535156 71.90625 -96.59375 66.53125 -96.59375 C 61.09375 -96.59375 56.015625 -95.59375 51.296875 -93.59375 C 46.578125 -91.59375 42.398438 -88.742188 38.765625 -85.046875 C 35.140625 -81.347656 32.304688 -77.007812 30.265625 -72.03125 C 28.234375 -67.0625 27.21875 -61.5625 27.21875 -55.53125 C 27.21875 -49.363281 28.253906 -43.753906 30.328125 -38.703125 C 32.398438 -33.660156 35.234375 -29.320312 38.828125 -25.6875 C 42.421875 -22.0625 46.59375 -19.269531 51.34375 -17.3125 C 56.09375 -15.351562 61.117188 -14.375 66.421875 -14.375 Z M 66.421875 -14.375 "/></g></g></g><g fill="#36e152" fill-opacity="1"><g transform="translate(766.288879, 807.37491)"><g><path d="M 36.8125 0 L 17.96875 0 L 17.96875 -111.078125 L 36.046875 -111.078125 L 36.046875 -86.25 C 38.804688 -93.9375 43.109375 -99.992188 48.953125 -104.421875 C 54.796875 -108.859375 61.742188 -111.078125 69.796875 -111.078125 L 80.578125 -111.078125 L 80.578125 -94.625 L 70.78125 -94.625 C 64.320312 -94.625 58.515625 -92.953125 53.359375 -89.609375 C 48.203125 -86.273438 44.15625 -81.445312 41.21875 -75.125 C 38.28125 -68.8125 36.8125 -61.191406 36.8125 -52.265625 Z M 36.8125 0 "/></g></g></g><g fill="#36e152" fill-opacity="1"><g transform="translate(850.792503, 807.37491)"><g><path d="M 120 -58.265625 C 120 -57.316406 119.976562 -56.316406 119.9375 -55.265625 C 119.90625 -54.210938 119.816406 -52.671875 119.671875 -50.640625 L 27.546875 -50.640625 C 28.347656 -43.234375 30.523438 -36.804688 34.078125 -31.359375 C 37.640625 -25.910156 42.101562 -21.71875 47.46875 -18.78125 C 52.84375 -15.84375 58.582031 -14.375 64.6875 -14.375 C 72.164062 -14.375 78.550781 -15.988281 83.84375 -19.21875 C 89.144531 -22.445312 93.03125 -27.1875 95.5 -33.4375 L 116.515625 -33.4375 C 114.921875 -28.351562 112.539062 -23.59375 109.375 -19.15625 C 106.21875 -14.726562 102.40625 -10.863281 97.9375 -7.5625 C 93.476562 -4.257812 88.472656 -1.664062 82.921875 0.21875 C 77.367188 2.101562 71.4375 3.046875 65.125 3.046875 C 57.0625 3.046875 49.597656 1.539062 42.734375 -1.46875 C 35.878906 -4.476562 29.890625 -8.671875 24.765625 -14.046875 C 19.648438 -19.421875 15.675781 -25.644531 12.84375 -32.71875 C 10.019531 -39.800781 8.609375 -47.40625 8.609375 -55.53125 C 8.609375 -63.664062 10.019531 -71.269531 12.84375 -78.34375 C 15.675781 -85.425781 19.648438 -91.648438 24.765625 -97.015625 C 29.890625 -102.390625 35.878906 -106.601562 42.734375 -109.65625 C 49.597656 -112.707031 57.0625 -114.234375 65.125 -114.234375 C 73.101562 -114.234375 80.453125 -112.742188 87.171875 -109.765625 C 93.890625 -106.785156 99.695312 -102.679688 104.59375 -97.453125 C 109.488281 -92.234375 113.28125 -86.265625 115.96875 -79.546875 C 118.65625 -72.828125 120 -65.734375 120 -58.265625 Z M 28.421875 -67.1875 L 100.84375 -67.1875 C 100.550781 -71.101562 99.40625 -74.835938 97.40625 -78.390625 C 95.40625 -81.953125 92.769531 -85.09375 89.5 -87.8125 C 86.238281 -90.539062 82.484375 -92.6875 78.234375 -94.25 C 73.992188 -95.8125 69.515625 -96.59375 64.796875 -96.59375 C 59.273438 -96.59375 54.007812 -95.46875 49 -93.21875 C 43.988281 -90.96875 39.664062 -87.660156 36.03125 -83.296875 C 32.40625 -78.941406 29.867188 -73.570312 28.421875 -67.1875 Z M 28.421875 -67.1875 "/></g></g></g><g fill="#000000" fill-opacity="1"><g transform="translate(977.668381, 807.37491)"><g><path d="M 78.625 3.046875 C 69.976562 3.046875 61.9375 1.632812 54.5 -1.1875 C 47.0625 -4.019531 40.5625 -8.085938 35 -13.390625 C 29.445312 -18.691406 25.109375 -25.0625 21.984375 -32.5 C 18.867188 -39.945312 17.3125 -48.242188 17.3125 -57.390625 L 17.3125 -148.203125 L 36.484375 -148.203125 L 36.484375 -58.796875 C 36.484375 -52.773438 37.40625 -47.113281 39.25 -41.8125 C 41.101562 -36.507812 43.828125 -31.828125 47.421875 -27.765625 C 51.015625 -23.703125 55.425781 -20.523438 60.65625 -18.234375 C 65.882812 -15.953125 71.875 -14.8125 78.625 -14.8125 C 85.226562 -14.8125 91.125 -15.9375 96.3125 -18.1875 C 101.507812 -20.4375 105.921875 -23.570312 109.546875 -27.59375 C 113.179688 -31.625 115.941406 -36.289062 117.828125 -41.59375 C 119.710938 -46.894531 120.65625 -52.554688 120.65625 -58.578125 L 120.65625 -148.203125 L 139.921875 -148.203125 L 139.921875 -57.390625 C 139.921875 -48.460938 138.414062 -40.296875 135.40625 -32.890625 C 132.394531 -25.484375 128.148438 -19.109375 122.671875 -13.765625 C 117.191406 -8.429688 110.710938 -4.296875 103.234375 -1.359375 C 95.753906 1.578125 87.550781 3.046875 78.625 3.046875 Z M 78.625 3.046875 "/></g></g><g transform="translate(1134.914886, 807.37491)"><g><path d="M 36.703125 37.890625 L 17.96875 37.890625 L 17.96875 -111.078125 L 35.9375 -111.078125 L 35.9375 -87.328125 C 38.550781 -92.484375 41.960938 -97.078125 46.171875 -101.109375 C 50.378906 -105.140625 55.257812 -108.316406 60.8125 -110.640625 C 66.363281 -112.960938 72.335938 -114.125 78.734375 -114.125 C 86.566406 -114.125 93.804688 -112.613281 100.453125 -109.59375 C 107.097656 -106.582031 112.90625 -102.390625 117.875 -97.015625 C 122.851562 -91.648438 126.703125 -85.425781 129.421875 -78.34375 C 132.140625 -71.269531 133.5 -63.664062 133.5 -55.53125 C 133.5 -47.40625 132.117188 -39.785156 129.359375 -32.671875 C 126.609375 -25.554688 122.765625 -19.3125 117.828125 -13.9375 C 112.890625 -8.5625 107.113281 -4.367188 100.5 -1.359375 C 93.894531 1.648438 86.710938 3.15625 78.953125 3.15625 C 72.847656 3.15625 67.035156 2.085938 61.515625 -0.046875 C 56.003906 -2.191406 51.085938 -5.242188 46.765625 -9.203125 C 42.453125 -13.160156 38.988281 -17.820312 36.375 -23.1875 L 36.703125 -10.671875 Z M 75.6875 -14.265625 C 81.050781 -14.265625 86.09375 -15.257812 90.8125 -17.25 C 95.53125 -19.25 99.6875 -22.082031 103.28125 -25.75 C 106.875 -29.414062 109.707031 -33.769531 111.78125 -38.8125 C 113.851562 -43.863281 114.890625 -49.4375 114.890625 -55.53125 C 114.890625 -61.5625 113.867188 -67.082031 111.828125 -72.09375 C 109.796875 -77.101562 106.984375 -81.4375 103.390625 -85.09375 C 99.796875 -88.757812 95.640625 -91.609375 90.921875 -93.640625 C 86.203125 -95.679688 81.125 -96.703125 75.6875 -96.703125 C 70.238281 -96.703125 65.15625 -95.644531 60.4375 -93.53125 C 55.71875 -91.425781 51.578125 -88.488281 48.015625 -84.71875 C 44.460938 -80.945312 41.671875 -76.570312 39.640625 -71.59375 C 37.609375 -66.625 36.59375 -61.269531 36.59375 -55.53125 C 36.59375 -49.65625 37.609375 -44.191406 39.640625 -39.140625 C 41.671875 -34.097656 44.5 -29.722656 48.125 -26.015625 C 51.757812 -22.316406 55.9375 -19.429688 60.65625 -17.359375 C 65.375 -15.296875 70.382812 -14.265625 75.6875 -14.265625 Z M 75.6875 -14.265625 "/></g></g><g transform="translate(1277.133677, 807.37491)"><g><path d="M 28.09375 2.28125 C 24.46875 2.28125 21.507812 1.140625 19.21875 -1.140625 C 16.9375 -3.429688 15.796875 -6.171875 15.796875 -9.359375 C 15.796875 -12.554688 16.9375 -15.296875 19.21875 -17.578125 C 21.507812 -19.867188 24.46875 -21.015625 28.09375 -21.015625 C 31.726562 -21.015625 34.6875 -19.867188 36.96875 -17.578125 C 39.257812 -15.296875 40.40625 -12.554688 40.40625 -9.359375 C 40.40625 -6.171875 39.257812 -3.429688 36.96875 -1.140625 C 34.6875 1.140625 31.726562 2.28125 28.09375 2.28125 Z M 28.09375 2.28125 "/></g></g></g></svg>